<?xml version="1.0" standalone="no"?>
<!DOCTYPE svg PUBLIC "-//W3C//DTD SVG 20010904//EN"
 "http://www.w3.org/TR/2001/REC-SVG-20010904/DTD/svg10.dtd">
<svg version="1.0" xmlns="http://www.w3.org/2000/svg"
 width="64.000000pt" height="64.000000pt" viewBox="0 0 64.000000 64.000000"
 preserveAspectRatio="xMidYMid meet">

<g transform="translate(0.000000,64.000000) scale(0.100000,-0.100000)"
fill="#9CA3AF" stroke="none">
<path d="M25 507 c-3 -7 -4 -100 -3 -207 l3 -195 183 -3 c144 -2 182 -5 182
-16 0 -26 41 -66 81 -77 76 -23 150 20 165 97 8 44 0 76 -31 112 -23 27 -25
37 -27 163 l-3 134 -273 3 c-216 2 -274 0 -277 -11z m535 -132 l0 -125 -27 6
c-16 4 -37 15 -49 25 -30 28 -43 24 -94 -26 -46 -45 -46 -46 -65 -25 -27 30
-46 25 -95 -25 -27 -27 -53 -45 -67 -45 -13 0 -23 -4 -23 -10 0 -6 47 -10 120
-10 73 0 120 -4 120 -10 0 -6 -63 -10 -170 -10 l-170 0 0 190 0 190 260 0 260
0 0 -125z m-93 -111 c1 -5 -11 -17 -28 -27 -17 -9 -36 -31 -42 -47 -9 -24 -17
-30 -41 -30 l-30 0 59 60 c56 57 75 67 82 44z m93 -39 c32 -17 60 -61 60 -95
0 -34 -28 -78 -60 -95 -37 -19 -63 -19 -100 0 -32 17 -60 61 -60 95 0 33 28
78 58 94 35 20 66 20 102 1z m-248 -12 c17 -15 17 -17 2 -35 -11 -12 -31 -18
-58 -18 l-40 0 34 35 c39 41 38 40 62 18z"/>
<path d="M160 460 c0 -11 5 -20 10 -20 6 0 10 9 10 20 0 11 -4 20 -10 20 -5 0
-10 -9 -10 -20z"/>
<path d="M116 446 c3 -9 11 -16 16 -16 13 0 5 23 -10 28 -7 2 -10 -2 -6 -12z"/>
<path d="M207 453 c-10 -9 -9 -23 2 -23 5 0 11 7 15 15 5 15 -5 20 -17 8z"/>
<path d="M82 418 c5 -15 28 -23 28 -10 0 5 -7 13 -16 16 -10 4 -14 1 -12 -6z"/>
<path d="M240 420 c-8 -5 -11 -12 -7 -16 4 -4 13 -2 19 4 15 15 7 24 -12 12z"/>
<path d="M137 402 c-22 -24 -21 -45 1 -65 23 -21 46 -22 66 -1 30 30 9 84 -33
84 -10 0 -25 -8 -34 -18z m61 -30 c4 -28 -24 -41 -44 -20 -20 20 -7 50 20 46
13 -2 22 -12 24 -26z"/>
<path d="M60 370 c0 -5 9 -10 20 -10 11 0 20 5 20 10 0 6 -9 10 -20 10 -11 0
-20 -4 -20 -10z"/>
<path d="M240 370 c0 -5 9 -10 20 -10 11 0 20 5 20 10 0 6 -9 10 -20 10 -11 0
-20 -4 -20 -10z"/>
<path d="M87 333 c-12 -12 -7 -22 8 -17 8 4 15 10 15 15 0 11 -14 12 -23 2z"/>
<path d="M230 332 c0 -5 7 -13 16 -16 10 -4 14 -1 12 6 -5 15 -28 23 -28 10z"/>
<path d="M116 294 c-4 -10 -1 -14 6 -12 15 5 23 28 10 28 -5 0 -13 -7 -16 -16z"/>
<path d="M202 298 c2 -6 10 -14 16 -16 7 -2 10 2 6 12 -7 18 -28 22 -22 4z"/>
<path d="M160 280 c0 -11 5 -20 10 -20 6 0 10 9 10 20 0 11 -4 20 -10 20 -5 0
-10 -9 -10 -20z"/>
<path d="M60 150 c0 -5 14 -10 30 -10 17 0 30 5 30 10 0 6 -13 10 -30 10 -16
0 -30 -4 -30 -10z"/>
<path d="M500 170 c0 -27 -3 -30 -30 -30 -16 0 -30 -4 -30 -10 0 -5 14 -10 30
-10 27 0 30 -3 30 -30 0 -16 5 -30 10 -30 6 0 10 14 10 30 0 27 3 30 30 30 17
0 30 5 30 10 0 6 -13 10 -30 10 -27 0 -30 3 -30 30 0 17 -4 30 -10 30 -5 0
-10 -13 -10 -30z"/>
</g>
</svg>
